# xmcd CD database file
#
# Track frame offsets:
#	150
#	16313
#	31557
#	49020
#	66685
#	80287
#	103103
#	115049
#	138178
#	152738
#	174069
#	195757
#	211429
#
# Disc length: 3339 seconds
#
# Revision: 1
# Processed by: cddbd v1.5.2PL0 Copyright (c) Steve Scherf et al.
# Submitted via: CDex 1.70beta2
#
DISCID=9a0d090d
DTITLE=Skúli Sverrisson - Seria
DYEAR=2006
DGENRE=Jazz
TTITLE0=Sería
TTITLE1=Nineteen Centuries
TTITLE2=Geislar Hennar
TTITLE3=Spontaneous Kindness
TTITLE4=Sungið ég Gæti
TTITLE5=Binding Garden
TTITLE6=Dora Kime
TTITLE7=Summer Star Water
TTITLE8=One Night of Swords
TTITLE9=Her Searching Hands
TTITLE10=Vaktir Þú
TTITLE11=Slow Sun
TTITLE12=Morgum
EXTD=YEAR: 2006
EXTT0=
EXTT1=
EXTT2=
EXTT3=
EXTT4=
EXTT5=
EXTT6=
EXTT7=
EXTT8=
EXTT9=
EXTT10=
EXTT11=
EXTT12=
PLAYORDER=
